Coordinates
version=1
nRows=5
nColumns=40
inDegrees=yes

Units are S.I. units (second, meters, Newtons, ...)
Angles are in degrees.

endheader
time	pelvis_tilt	pelvis_list	pelvis_rotation	pelvis_tx	pelvis_ty	pelvis_tz	hip_flexion_r	hip_adduction_r	hip_rotation_r	knee_angle_r	knee_angle_r_beta	ankle_angle_r	subtalar_angle_r	mtp_angle_r	hip_flexion_l	hip_adduction_l	hip_rotation_l	knee_angle_l	knee_angle_l_beta	ankle_angle_l	subtalar_angle_l	mtp_angle_l	lumbar_extension	lumbar_bending	lumbar_rotation	arm_flex_r	arm_add_r	arm_rot_r	elbow_flex_r	pro_sup_r	wrist_flex_r	wrist_dev_r	arm_flex_l	arm_add_l	arm_rot_l	elbow_flex_l	pro_sup_l	wrist_flex_l	wrist_dev_l
      5.39000000	     -8.11362132	     -6.32876130	      2.17570284	      1.05197412	      0.92689372	      0.48666251	     14.21265200	      5.21006268	    -14.81926744	     16.18487053	     16.18487053	     11.72025160	      1.60468634	      0.10680079	     41.64112233	    -13.30368153	      3.59094030	     57.50577116	     57.50577116	      4.80201218	    -18.77413403	     13.31253598	    -12.08414135	      4.86280878	      2.52390239	     29.14934998	    -16.73302980	      6.79528436	     81.46302532	     44.27485195	      0.00000000	      0.00000000	     -4.80419809	     -7.23047985	     -4.11025023	     27.13235176	     46.43264808	      0.00000000	      0.00000000
      5.40171429	     -8.18775413	     -6.30393321	      2.35030099	      1.05095637	      0.92663288	      0.48634509	     13.68451516	      5.19936981	    -14.85902620	     16.01131633	     16.01131633	     12.16682276	      1.69867048	      0.20736292	     42.34689403	    -12.92457371	      3.40954854	     54.46019148	     54.46019148	      5.63126399	    -18.67667713	     14.67190464	    -12.09457619	      4.89172638	      3.03855785	     30.84579426	    -17.06452613	      6.43992562	     85.12166013	     44.38595912	      0.00000000	      0.00000000	     -6.07895417	     -7.70928081	      0.23394432	     27.64381373	     45.64187588	      0.00000000	      0.00000000
      5.41342857	     -8.25884084	     -6.25311835	      2.53347806	      1.05003334	      0.92639121	      0.48578259	     13.05951896	      5.16811849	    -14.90096752	     15.66841913	     15.66841913	     12.49783834	      1.81525209	      0.09269121	     42.80478591	    -12.43552993	      3.30348132	     51.10930116	     51.10930116	      5.94674518	    -18.48767125	     14.70750175	    -12.04540757	      4.90116279	      2.98473868	     33.21098800	    -16.74671876	      6.47362245	     87.29049009	     44.33786994	      0.00000000	      0.00000000	     -7.23218789	     -7.56100783	      0.40909729	     27.39873407	     45.59669728	      0.00000000	      0.00000000
      5.42514286	     -8.47419897	     -6.21005952	      2.68865636	      1.04902787	      0.92591124	      0.48502506	     12.59181159	      5.12747521	    -14.91696837	     15.32368146	     15.32368146	     12.82665225	      1.92671837	     -0.00965909	     43.29175222	    -11.87266369	      3.32849156	     47.68972766	     47.68972766	      6.28629711	    -17.97084727	     14.84841322	    -11.77951669	      4.93419708	      3.31350967	     35.50962617	    -16.79566121	      6.26189066	     88.73652029	     44.31202875	      0.00000000	      0.00000000	     -8.11247177	     -7.36996417	      0.50204706	     27.21658643	     45.56720211	      0.00000000	      0.00000000
      5.43685714	     -8.43477285	     -6.13489289	      2.86476873	      1.04840398	      0.92590018	      0.48406406	     11.62798840	      5.08377253	    -15.07851860	     14.62215164	     14.62215164	     13.09847843	      2.41610993	     -0.12414424	     43.25047744	    -11.23097047	      3.51154571	     44.09773290	     44.09773290	      6.49409216	    -17.28317827	     14.61579233	    -11.87909543	      4.94463623	      3.12814920	     37.62023487	    -16.30346669	      6.55499342	     91.42046558	     44.23557536	      0.00000000	      0.00000000	     -9.30420497	     -7.27546883	      0.71259830	     27.20184239	     45.51206797	      0.00000000	      0.00000000
